<?xml version="1.0" encoding="UTF-8"?>
<svg id="Layer_2" data-name="Layer 2" xmlns="http://www.w3.org/2000/svg" viewBox="0 0 112.1 37.38">
  <defs>
    <style>
      .cls-1 {
        fill: #9d5224;
      }

      .cls-2 {
        fill: #562504;
      }

      .cls-3 {
        fill: #612e05;
      }

      .cls-4 {
        fill: #723412;
      }

      .cls-5 {
        fill: #804118;
      }
    </style>
  </defs>
  <g id="Layer_1-2" data-name="Layer 1">
    <g>
      <path class="cls-1" d="M89.98,6.46c1.8-1.3,17.47-.16,18.45-.16s3.67-2.64,3.67-3.29-2.69-2.56-4.16-2.23c-1.47.32-5.39.65-10.29.49C54.21-3.12,0,5.32,0,5.32l2.04,1.14,80.1,14.83,8.47-14.11c-.98-.02-1.4-.16-.63-.71h0Z"/>
      <path class="cls-3" d="M109.57,7.6c-4.57.81-10.12.16-13.39-.33-1.28-.19-2.78-.16-4.03-.12-.59.02-1.11.03-1.54.02l-8.47,14.11,19.03,3.52c.42-.01.88-.01,1.38.01,3.27.16,7.8-14.84,8.94-15.66.18-.97-.73-.73-1.92-1.56h0Z"/>
      <path class="cls-3" d="M7.18,20.43c-.36,0-.71.01-1.04.03,1.36,0,2.51-.03,1.04-.03Z"/>
      <path class="cls-3" d="M104.35,26.28c-2.61.32-6.7-.81-6.7-.81,0,0,1.18-.58,3.52-.66L2.04,6.46l-2.04-1.14s1.26,13.59,1.8,13.97c1,.71,1.06.91,2.04,1.08.39.07,1.4.09,2.31.09.33-.02.68-.03,1.04-.03,1.47,0,.32.04-1.04.03-1.95.11-3.44.53-3.86.94-.49.49.51,7.49.51,7.49,0,0,.86,1.36,2.82,1.52,1.96.16,2.06.24.1.24s-1.96.65-1.96,1.14c0,2.76,1.76,5.4,2.9,5.57,1.14.16,12.12-2.48,22.25-2.8,12.41.49,55.36-1.95,65.81-1.95s15.55-5.36,15.55-5.36l-1.35-.97s-1.96-.33-4.57,0h0Z"/>
      <path class="cls-5" d="M10.24,37.01c1.21-.12,2.43-.16,3.64-.26,3.49-.31,6.99-.51,10.49-.73,2.19-.14,4.38-.24,6.58-.31,12.41.49,55.36-1.95,65.81-1.95s13.06-2.11,13.06-2.11l.49-4.55s-1.31,0-3.92.32c-2.61.32-6.7-.81-6.7-.81,0,0,1.63-.81,4.9-.65,3.27.16,5.06.33,6.21-.49,1.14-4.22,1.14-14.95.82-16.73-4.57.81-10.12.16-13.39-.33-1.28-.19-2.78-.16-4.03-.12-1.94.05-3.27.1-2.18-.69,1.8-1.3,17.47-.16,18.45-.16s1.63-3.41,1.63-4.06-.65-1.79-2.12-1.46c-1.47.32-5.39.65-10.29.49C56.26-1.99,2.04,6.46,2.04,6.46c0,0,.1,1.21.26,2.92.02.19.04.38.05.58.08.9.18,1.91.29,2.94.15,1.41.31,2.85.47,4.09.15,1.15.3,2.13.44,2.74.1.44.2.7.29.7.65,0,6.7.16,7.68.33.98.16.16.81-2.29.81s-4.41.49-4.9.97c-.28.28-.24,2.56-.16,4.47.07,1.44.16,2.55.16,2.55,0,0,.65,1.1,2.61,1.26,1.96.16,2.78.97.82.97s-1.9.21-2.12.65c-.16.32-.04.87,0,1.3,0,0,.53,3.61,1.14,3.61s3.46-.36,3.46-.36h0Z"/>
      <path class="cls-2" d="M5.75,30.67c.06,0,.17.01.35.02-.02,0-.04,0-.06-.02-.03,0-.06,0-.09,0-.08,0-.15,0-.2,0h0Z"/>
      <path class="cls-4" d="M110.96,24.49s-14.21.33-16.82.81c-2.45.46-32.04,2.63-40.16,2.63-.54,0-.98,0-1.32-.03-1.67-.1-4.33-.14-7.28-.14-6.57,0-14.6.19-16.4.3-2.51.16-19.65,2.56-22.94,2.61.02,0,.04.01.06.02.6.03,1.87.08,3.56.08,2.79,0,6.72-.14,10.67-.75,5.28-.82,11.57-1.47,17.42-1.47,2.29,0,4.52.1,6.59.33.67.07,1.65.11,2.89.11,12.35,0,50.07-3.36,53.78-3.36,4.08,0,9.96-1.14,9.96-1.14h0Z"/>
      <path class="cls-2" d="M5.72,30.67h0s.03,0,.04,0c-.03,0-.04,0-.04,0h0Z"/>
      <path class="cls-4" d="M5.88,35.08s.02,0,.03,0c-.02,0-.03,0-.03,0h0ZM90.55,30.18s-11.43.26-13.53.64c-1.97.36-25.79,2.08-32.31,2.08-.43,0-.79,0-1.06-.02-1.34-.08-3.49-.11-5.86-.11-5.29,0-11.74.15-13.19.24-2.04.12-16.06,2.07-18.53,2.07-.06,0-.12,0-.16,0,.2.01,1.39.08,3.14.08,2.24,0,5.41-.11,8.59-.6,4.25-.65,9.31-1.16,14.01-1.16,1.85,0,3.64.08,5.3.26.54.06,1.33.09,2.32.09,9.93,0,40.28-2.66,43.27-2.66,3.28,0,8.01-.9,8.01-.9h0Z"/>
      <path class="cls-4" d="M111.79,14.57c-.43.03-9.17,1.49-12.1,1.8-3.1.32-30.05,4.39-33.97,4.71-3.92.32-29.07,2.76-32.5,2.92-2.66.13-18.84,1.42-26,2,7.97-.33,31.1-1.3,39.55-1.84,10.29-.65,29.07-3.57,34.94-4.22,5.88-.65,29.39-5.2,30.05-5.36,0,0,.01,0,.02,0h0Z"/>
      <path class="cls-2" d="M4.14,26.21l-.3.08s.11,0,.3-.02c0-.02,0-.03,0-.05h0Z"/>
      <path class="cls-4" d="M7.23,26.01c-1.73.07-2.74.11-2.74.11l-.35.09s0,.03,0,.05c.5-.04,1.6-.13,3.09-.25h0Z"/>
      <path class="cls-4" d="M32.25,3.05c2.61,1.14,30.37,2.6,36.09,2.6s32.82-.81,35.93-.81,5.72-.97,5.55-1.14c-.49.49-28.9.81-41.31.97-.54,0-1.1.01-1.68.01-12.76,0-34.57-1.64-34.57-1.64h0Z"/>
      <path class="cls-4" d="M111.61,8.74h0s-.98.32-1.8.65c0,0-25.96,4.22-32.66,4.39-6.7.16-17.15,2.6-19.6,2.92-.16.02-.22.03-.18.03.59,0,20.08-1.98,24.34-1.98s27.74-2.99,30.04-3.95c-.03-.97-.09-1.7-.15-2.06h0Z"/>
      <path class="cls-2" d="M2.5,11.5c-.09,0-.13,0-.13,0,0,0,.04,0,.13,0,0,0,0,0,0,0h0Z"/>
      <path class="cls-4" d="M18.33,11.43c-7.13,0-14.76.06-15.84.07,0,0,0,0,0,0,1.92.06,24.47.81,26.81.81s25.64.49,25.64.49c0,0-14.37,5.04-16.82,5.85-2.45.81-19.76,3.41-22.05,3.74-2.29.32-11.92,2.76-11.92,2.76,0,0,8-.97,12.74-1.79s14.7-1.14,22.86-4.22c8.16-3.09,19.11-6.66,19.11-6.66,0,0-23.19-.81-30.54-.97-2.45-.05-6.15-.07-10-.07h0Z"/>
      <path class="cls-4" d="M13.84,20.01c-1.59.42-2.33.75-2.33.75,0,0,.93-.3,2.33-.75h0ZM3.35,15.4h0s10.45.97,13.88.97,12.25,0,9.47.16c-2.02.12-9.12,2.3-12.86,3.48.65-.17,1.45-.36,2.41-.55,3.27-.65,20.9-3.74,16.98-3.9-3.89-.16-29.57-.16-29.88-.16h0Z"/>
    </g>
  </g>
</svg>