<?xml version="1.0" encoding="UTF-8"?>
<svg xmlns="http://www.w3.org/2000/svg" xmlns:xlink="http://www.w3.org/1999/xlink" viewBox="0 0 240.53 39.41">
  <defs>
    <style>
      .cls-1 {
        fill: #6d5b51;
      }

      .cls-2 {
        fill: #ae721f;
        opacity: .1;
      }

      .cls-2, .cls-3, .cls-4 {
        mix-blend-mode: multiply;
      }

      .cls-3 {
        opacity: .3;
      }

      .cls-5 {
        fill: url(#linear-gradient);
      }

      .cls-6 {
        isolation: isolate;
      }

      .cls-4 {
        fill: #83550d;
      }

      .cls-4, .cls-7 {
        opacity: .2;
      }

      .cls-7 {
        fill: url(#linear-gradient-2);
        mix-blend-mode: screen;
      }
    </style>
    <linearGradient id="linear-gradient" x1="-7102.01" y1="186.19" x2="-7083.41" y2="237.86" gradientTransform="translate(7566.07 20.05) rotate(1.63) scale(1.05 1)" gradientUnits="userSpaceOnUse">
      <stop offset="0" stop-color="#bc701b"/>
      <stop offset="1" stop-color="#fab577"/>
    </linearGradient>
    <linearGradient id="linear-gradient-2" x1="-7115.95" y1="226.18" x2="-7119.55" y2="180.11" gradientTransform="translate(7566.07 20.05) rotate(1.63) scale(1.05 1)" gradientUnits="userSpaceOnUse">
      <stop offset="0" stop-color="#bc701b"/>
      <stop offset="1" stop-color="#fff"/>
    </linearGradient>
  </defs>
  <g class="cls-6">
    <g id="Layer_2" data-name="Layer 2">
      <g id="Layer_1-2" data-name="Layer 1">
        <g>
          <path class="cls-5" d="M237.52,22.32c-.47,3.06-1.1,6.11-1.35,9.19-.09,1.13-.1,2.27-.15,3.4-.05,1.12.98,3.26-.11,4.21-3.15.74-7.76-.09-10.99-.09-2.49-.01-4.97-.03-7.45-.04-.05,0-.11,0-.15,0-2.6-.07-5.22-.13-7.82-.15-9.17-.08-18.33.14-27.5.21-3.22-.14-6.44-.26-9.66-.33-20.37-.41-40.74-.83-61.11-1.1-6.15-.08-12.29-.16-18.44-.25-10.8-.26-21.58-.51-32.38-.73-19.3-.4-38.46-1.08-57.77-.56-.89-.08-1.88-.15-2.66-.11.84-6.16.25-12.48.42-18.66.03-1.1.03-2.21.05-3.32,0-.02.03-.03.04-.05C.95,9.4,1.13,4.88,1.9.38c8.52.49,17.22.25,25.75.29,10.14.05,20.28-.4,30.42-.51,20.18-.21,40.51-.28,60.68.19,20.22.47,40.46.81,60.69,1.36,10.53.29,21.06.6,31.58,1.05,5.06.22,10.13.2,15.21.28,4.58.08,9.83-.07,14.26.83.43.09-2.73,16.86-2.97,18.44Z"/>
          <g class="cls-3">
            <path class="cls-1" d="M68.09,23.58c-3.1-1.06-7.9-.78-11.28-.88-6.93-.19-13.79-.7-20.7-1.14-6.03-.38-12.08-.61-18.13-.82-3.14-.11-6.26-.24-9.38-.56-2.55-.26-5.8-.27-8.18-.98-.1-.03-.21,0-.3.04v.33c1.43.43,2.89.44,4.43.59,3.04.29,6.07.6,9.14.73,6.01.26,12.01.44,18.01.77,11.19.61,22.33,1.4,33.53,1.89,1.67.07.72.44-.16.46-.72.01-1.42-.07-2.13-.06-3.25.07-6.49.05-9.75.08-5.93.06-11.88.25-17.82.32-5.92.07-11.82.33-17.75.3-5.86-.03-11.66-.22-17.52.02,0,.15,0,.29,0,.44,5.81-.22,11.59-.05,17.41,0,6.38.06,12.75-.23,19.13-.3,6.41-.07,12.81-.29,19.22-.32,2.75-.01,5.5-.05,8.24,0,1.36.02,2.73.07,3.87-.49.18-.09.38-.32.1-.42Z"/>
            <path class="cls-1" d="M225.16,25.27c-5.23-.07-10.32-.66-15.48-1.19-9.29-.93-18.97-.84-28.32-.76-20.41.17-40.72-.19-61.09-1.19-20.34-1-40.71-1.64-61.08-2.34-9.77-.33-19.52-.27-29.3-.31-9.98-.04-19.81-1.35-29.77-1.61,0,.12,0,.25,0,.37,8.96.4,17.84,1.42,26.82,1.67,10.21.27,20.45.01,30.68.29,21.27.58,42.55,1.4,63.8,2.35,19.43.87,38.87,1.56,58.34,1.68,10.2.06,20.45.11,30.58,1.01,4.47.39,8.83.63,13.33.68,4.58.05,9.22.37,13.78.28h.02c0-.16.02-.32.04-.48-4.09.05-8.24-.4-12.35-.46Z"/>
            <path class="cls-1" d="M237.93,20c-3.01,1.09-8.53.09-11.95.05-5.3-.06-10.6-.16-15.9-.25-10.06-.16-20.1-.42-30.16-.63-10.46-.23-20.93-.38-31.35-1.02-10.41-.64-20.79-1.5-31.23-1.95-9.67-.42-19.32-.04-28.99.18-10.59.24-21.06-.22-31.62-.79-9.27-.5-18.56-.43-27.83-.12-5.33.17-10.88.21-16.12-.5-4.42-.59-8.04-.82-12.56-.38-.08,0-.14.06-.17.11v.1s.06.03.12.02c4.83-.52,9.03-.17,13.79.47,4.46.6,8.99.58,13.51.52,10.66-.12,21.13-.13,31.75.57,9.67.64,19.25.89,28.95.69,11.09-.23,22.03-.62,33.13-.16,9.99.42,19.93,1.22,29.89,1.77,10,.56,20.03.69,30.04.92,10.54.24,21.07.54,31.61.69,5.65.08,11.34,0,16.97.2,2.52.08,5.96.62,8.24-.24.25-.09.13-.34-.15-.24Z"/>
            <path class="cls-1" d="M177.17,8.73c20.98-.1,41.85,1.06,62.77,2.07.02-.13.04-.27.06-.4-19.49-.97-38.95-1.99-58.49-2.02-20.96-.04-41.66,1.93-62.54,2.8-10.54.45-20.98.98-31.55.61-9.65-.34-19.3-.53-28.95-.73-9.59-.2-19.16-.4-28.75-.62-5.22-.12-10.55-.72-15.7-1.29-4.49-.49-9.06-.55-13.52-1.05-.12-.01-.24.13-.09.15,3.96.62,8.14.6,12.15,1.1,4.76.6,9.61.99,14.41,1.39,4.73.4,9.73.15,14.49.32,4.37.15,8.74.14,13.11.22,10.27.22,20.54.34,30.79.74-8.24-.11-16.48-.27-24.71-.31-10.17-.06-20.33-.04-30.5.25-5.34.16-10.68.35-16.03.5-2.25.06-4.48.15-6.73.29-2.23.13-5.16.52-7.38.08v.12c2.57.65,5.93.23,8.56.1,5.2-.25,10.43-.28,15.65-.42,10.66-.29,21.28-.35,31.95-.24,10.07.1,20.14.07,30.21.25,10.56.19,21.18.36,31.7-.29,20.15-1.25,40.12-1.39,60.33-1.48,10.42-.05,20.82.02,31.25.37,10.02.33,20.08.28,30.09.86.02-.12.04-.25.05-.37-9.03-.56-18.13-.44-27.18-.73-9.94-.31-19.88-.55-29.83-.57-20.21-.06-40.18-.14-60.35,1.06-6.25.37-12.53.53-18.8.59,3.66-.1,7.32-.25,11-.39,20.86-.87,41.63-2.85,62.54-2.96Z"/>
            <path class="cls-1" d="M236.25,13.43c-2.66-.03-5.27,0-7.94-.12-5.59-.26-11.19-.35-16.78-.44-6.16-.09-12.31-.1-18.47-.21-5.81-.11-11.58-.31-17.35.25-.1.01-.17.14-.03.13,5.77-.42,11.52-.17,17.3-.04,6.15.15,12.3.18,18.45.25,6.49.08,12.98.22,19.45.47,1.52.05,2.94-.01,4.45-.06,1.59-.06,2.47.64,3.91.31.02,0,.03-.03,0-.03-.66.06-2.23-.5-3-.51Z"/>
            <path class="cls-1" d="M238.48,18.62c-13.8-.45-27.64-.25-41.44-.84-14.27-.61-28.49-1.38-42.79-1.41-7.56-.02-15.08-.09-22.62-.49-3.22-.17-6.42-.34-9.64-.49-.45-.01-.89-.02-1.34-.01-1.27.26-2.28.09-3.02-.53,1.38-.06,2.79-.22,4.17-.33,13.6-1.06,27.37-.52,41.01-1.29.03,0,.06-.04.01-.04-8.49.44-16.91.46-25.42.56-4.02.06-8.05.25-12.08.35-2.96.08-6.55.06-9.37.67-.14.03-.34.23-.12.29,3.87,1.13,8.68.78,12.83,1.02,4.62.27,9.26.48,13.9.56,11.55.21,23.06.17,34.6.66,20.41.86,40.8,1.74,61.26,1.67.02-.12.03-.23.06-.34Z"/>
            <path class="cls-1" d="M235.33,32.04c-18.67-1.03-37.59-1.06-56.3-1-20.5.06-41-.2-61.48.26-10.22.23-20.39.79-30.58,1.22-9.93.42-19.83.29-29.76.18-9.78-.11-19.47-.04-29.23.36-9.31.38-18.45,0-27.76-.28,0,.11,0,.22,0,.33,8.78.15,17.51.7,26.3.47,9.69-.27,19.4-.03,29.1.01,9.94.05,19.82.08,29.75-.4,10.21-.49,20.39-1.14,30.63-1.45,20.48-.62,41-.37,61.5-.35,10.03.02,20.06.03,30.09.25,9.23.19,18.47.67,27.7.55.1,0,.19-.14.06-.14Z"/>
            <path class="cls-1" d="M73.87,29c-12.59.39-25.17.91-37.74,1.37-6.49.24-12.99.49-19.48.69-3.14.09-6.28.16-9.42.21-1.68.03-5.27.57-7.03.09,0,.04,0,.07,0,.11.78.25,1.56.08,2.59.11,2.77.08,5.6,0,8.37-.04,6.86-.07,13.71-.31,20.56-.53,14.04-.45,28.12-.78,42.1-1.77.19-.02.3-.24.05-.23Z"/>
            <path class="cls-1" d="M236.51,29.57c-8.35-1-17.33-1.07-25.78-1.01-10.25.07-20.51-.06-30.76-.24-20.58-.36-41.15-1.03-61.74-1.07-20.3-.03-40.63.31-60.92.72-9.92.2-19.85.36-29.77.36-5.11,0-10.23-.03-15.34-.23-4.03-.15-8.05-.75-12.07-.83,0,.09,0,.18,0,.28,3.96.17,7.89.71,11.87.9,4.2.21,8.42.23,12.62.26,9.91.08,19.83-.07,29.73-.24,20.29-.36,40.56-.68,60.85-.77,20.1-.09,40.2.51,60.28.91,10.25.21,20.5.34,30.76.34,9.94,0,20.15-.07,29.99,1.05.36.04.7-.39.27-.44Z"/>
            <path class="cls-1" d="M237.37,36.06c-19.68-.05-39.21,1.16-58.86,1.5-20.17.34-40.38-1.16-60.54-1.58-9.92-.21-19.83.06-29.76-.06-10.12-.13-20.16-1.25-30.29-1.37-9.9-.13-19.78.33-29.7.12-4.71-.1-9.41-.22-14.11-.25-4.64-.04-9.25-.63-13.88-.51,0,.13,0,.27,0,.41,4.12-.09,8.24.43,12.37.5,4.7.08,9.4.13,14.1.24,9.93.23,19.75.01,29.67-.09,10.14-.1,20.22,1.07,30.33,1.34,9.9.25,19.81-.11,29.72.06,20.17.36,40.34,1.86,60.53,1.66,10.09-.1,20.16-.68,30.22-1.1,10.05-.41,20.1-.32,30.14-.65.17,0,.27-.21.04-.21Z"/>
            <path class="cls-1" d="M226.92,8.69c-4.88-.23-9.74-.56-14.6-.89-9.99-.66-19.94-1.55-29.94-2.14-19.82-1.15-39.75-1.58-59.63-2.01-10.19-.21-20.37-.49-30.56-.42-9.94.07-19.77.81-29.67,1.37-9.82.56-19.71.76-29.56.85-10.74.1-21.64.41-32.35-.11-.03.1-.05.21-.07.31,9.26.71,18.74.35,28.04.34,9.9-.01,19.8-.26,29.66-.68,9.87-.41,19.62-1.4,29.5-1.62,10.67-.23,21.34.05,32,.28,21.28.46,42.6.95,63.82,2.21,9.99.59,19.95,1.49,29.94,2.15,4.83.32,9.65.62,14.5.84,4,.18,8.11.68,12.11.37v-.02c0-.13,0-.26.02-.39-4.31.32-8.88-.24-13.18-.44Z"/>
            <path class="cls-1" d="M151.75,8.26c-5.45-.94-11.5-1.16-17.11-1.29-7.51-.17-14.96-.3-22.45-.69-12.62-.67-25.38-.98-37.76,1.11-.15.03-.33.24-.13.3,2.52.69,5.66.33,8.34.67,3.88.49,7.73.66,11.67.76,7.05.16,15.64.98,22.43-.55.13-.03.34-.23.13-.29-2.7-.69-5.89-.59-8.74-.69-4.53-.16-9.07-.05-13.6-.13-.28,0-.42.32-.07.32,5.75.09,11.51-.06,17.25.28,1.11.07,2.05.11,3.18.18,2.81.16-1.54.51-2.13.55-2.66.17-5.36.17-8.02.17-5.59,0-11.23-.09-16.8-.39-2.63-.14-5.16-.56-7.76-.81-.71-.07-2-.15-2.72-.14-3.8.04.75-.46,2.2-.63,11.7-1.35,23.34-.91,35.11-.32,11.42.56,22.79.61,34.16,1.64,2.92.26.32.22-.25.24-1.22.02-2.4.13-3.63.2-2.51.15-5.05.24-7.56.36-5.96.28-11.91.44-17.86.76-12.72.69-24.98.67-37.7-.04-11.15-.63-22.4-.27-33.56-.83-2.16-.11-.66-.95.47-1.03.85-.06,1.68-.14,2.52-.22,2.42-.25,4.83-.44,7.27-.55,5.85-.26,11.73-.58,17.55-1.05,7.39-.61,14.73-1.36,22.17-1.63,7.58-.27,14.95.65,22.48.85.04,0,.07-.05.02-.06-6.59-.26-13.04-1.02-19.67-1.03-7.42-.02-14.84.72-22.17,1.37-7.16.63-14.37,1.02-21.57,1.33-2.87.13-5.68.53-8.53.7-1.42.08-2.7.23-3.81.85-.09.05-.15.2,0,.24,3.14.91,6.85.67,10.19.86,4.16.23,8.36.25,12.54.3,9.97.09,19.84.95,29.8,1.05,9.76.1,19.52-.58,29.24-1.09,4.35-.23,8.72-.26,13.07-.5,3.83-.2,8.04-.05,11.74-.71.25-.05.41-.34.09-.39Z"/>
            <path class="cls-1" d="M240.44,6.64c-20.29-.77-40.44-2.85-60.76-3.64-20.97-.82-41.97-1.13-62.95-1.67-20.88-.53-42.06-.38-62.91.54-10.39.46-20.77,1.03-31.16,1.38-4.48.15-8.96.26-13.45.22-1.98-.02-5.87.47-7.62-.15-.3-.11-.71.25-.38.37,1.17.41,3.47.15,4.72.16,3.19.03,6.37.02,9.56-.02,10.86-.17,21.69-.78,32.52-1.3,10.38-.5,20.73-.81,31.14-.77,11.04.04,22.04-.27,33.08-.03,21.94.47,43.88.78,65.8,1.6,10.93.41,21.87.94,32.76,1.75,9.9.73,19.64,1.79,29.6,1.83.02-.09.04-.18.07-.27Z"/>
            <path class="cls-1" d="M29.96,23.18c-1.14-.46-2.27-.62-3.59-.62-2.82,0-5.56-.12-8.35-.37-5.82-.52-11.69-.77-17.52-1.25-.16-.01-.27.07-.27.17-.04,0-.07-.02-.1-.03,0,.07,0,.13,0,.2.04.02.09.03.17.06.12.04.3-.04.3-.13-.05.77,24.93,1.41,27.73,1.66.3.72-.11.96-1.24.72-1.29.04-2.59-.01-3.88-.03-2.8-.04-5.59-.12-8.39-.15-4.79-.04-9.91-.3-14.69.07,0,.13,0,.26,0,.39,5.72-.52,11.7-.25,17.44-.12,3.15.07,6.31.16,9.47.06.86-.03,2.38,0,2.93-.55.03-.03.03-.07-.01-.08Z"/>
          </g>
          <path class="cls-2" d="M237.52,22.32c.24-1.58,3.4-18.35,2.97-18.44-4.43-.9-9.69-.75-14.26-.83-5.07-.08-10.15-.06-15.21-.28-10.52-.45-21.05-.77-31.58-1.05-20.23-.55-40.47-.88-60.69-1.36-3.4-.07-6.82-.12-10.23-.17,6.74.7,13.48,1.38,20.27,1.77,6.85.39,13.78.09,20.59.69,6.43.57,12.72,1.57,19.05,2.45,12.64,1.77,25.42,1.98,37.91,4.35,3.79.72,11.68,2.44,6.03,5.58-2.57,1.42-6.57,2.44-9.61,3.28-4.16,1.15-8.47,2.08-12.86,2.74-4.86.74-9.79,1.27-14.78,1.51-5.42.26-10.88.05-16.28.49-11.12.89-21.93,3.41-33.11,3.9-11.03.48-22.07-1.03-33.06-.52-5.96.27-11.49,1.73-17.35,2.35-5,.53-9.96.6-14.86,1.55-5.41,1.04-10.79,1.59-16.31,2.26-4.94.61-9.9,1.32-14.92,1.55-5.85.27-11.65.06-17.5.1-3.95.02-7.74.97-11.65,1.1-.03.2-.04.41-.07.62.78-.04,1.78.03,2.66.11,19.31-.52,38.47.16,57.77.56,10.8.23,21.59.48,32.38.73,6.15.09,12.29.17,18.44.25,20.37.27,40.74.69,61.11,1.1,3.22.06,6.44.19,9.66.33,9.17-.08,18.33-.29,27.5-.21,2.61.02,5.22.08,7.82.15.04,0,.1,0,.15,0,2.48,0,4.96.03,7.45.04,3.22,0,7.84.83,10.99.09,1.09-.95.06-3.09.11-4.21.05-1.13.06-2.27.15-3.4.25-3.08.88-6.12,1.35-9.19Z"/>
          <path class="cls-4" d="M237.52,22.32c.24-1.58,3.4-18.35,2.97-18.44-4.43-.9-9.69-.75-14.26-.83-3.4-.06-6.79-.07-10.19-.14.4.1.78.2,1.1.31,2.32.83,4.49,1.81,6.41,3,3.01,1.87,6.47,3.72,9.06,5.85,1.43,1.18,2.96,2.82,2.51,4.44-1.03,3.7-8.44,4.32-12.65,5.55-4.34,1.28-7.84,3.47-11.9,5.05-4.14,1.61-8.38,2.12-12.96,2.87-5.32.87-10.71,2.14-16.17,2.51-4.39.3-8.69.03-13.04-.37-12.05-1.11-23.26.14-35.22,1.06-11.62.89-23.18-.19-34.81.8-7.46.64-14.58,2.18-21.9,3,5.44.13,10.89.24,16.34.37,6.15.09,12.29.17,18.44.25,20.37.27,40.74.69,61.11,1.1,3.22.06,6.44.19,9.66.33,9.17-.08,18.33-.29,27.5-.21,2.61.02,5.22.08,7.82.15.04,0,.1,0,.15,0,2.48,0,4.96.03,7.45.04,3.22,0,7.84.83,10.99.09,1.09-.95.06-3.09.11-4.21.05-1.13.06-2.27.15-3.4.25-3.08.88-6.12,1.35-9.19Z"/>
          <path class="cls-7" d="M30.09,25.13c6.55.61,13.02.19,19.53-.35,6.6-.56,13.22-.86,19.83-1.35,6.12-.46,12.3-1.12,18.45-1.29,6.39-.17,12.73-.04,19.08-.61,6.17-.56,12.35-.91,18.56-1.22,12.2-.61,24.31-1.29,36.22-3.28,4.88-.81,9.7-1.99,14.63-2.64,3.57-.47,7.44-.51,10.82-1.47,1.53-.43,3.16-.82,1.14-1.63-.87-.35-1.77-.67-2.74-.88-1.95-.44-3.96-.72-6-.88-3.81-.29-7.63-.34-11.46-.46-10.51-.33-20.82-2.25-31.34-2.76-12-.59-24.05-.62-36.07-.95-11.77-.33-23.71-2.13-35.48-1.46-11.9.68-23.82.28-35.75.26-5.56-.01-10.97-.15-16.52-.43-3.83-.19-7.73.05-11.57-.09-.4,3.43-.59,6.86-.93,10.3,0,.02-.03.03-.04.05-.02,1.11-.02,2.22-.05,3.32-.06,2.29-.02,4.61.01,6.93,3.79-.1,7.58-.16,11.37-.12,6.16.06,12.19.46,18.29,1.02Z"/>
        </g>
      </g>
    </g>
  </g>
</svg>